<svg width="28" height="28" viewBox="0 0 28 28" fill="none" xmlns="http://www.w3.org/2000/svg">
<path d="M19.6001 11.8999H13.3001C12.5269 11.8999 11.9001 12.5267 11.9001 13.2999V19.5999C11.9001 20.3731 12.5269 20.9999 13.3001 20.9999H19.6001C20.3733 20.9999 21.0001 20.3731 21.0001 19.5999V13.2999C21.0001 12.5267 20.3733 11.8999 19.6001 11.8999Z" stroke="white" stroke-width="2" stroke-linecap="round" stroke-linejoin="round"/>
<path d="M9.1 16.1H8.4C8.0287 16.1 7.6726 15.9525 7.41005 15.6899C7.1475 15.4274 7 15.0713 7 14.7V8.4C7 8.0287 7.1475 7.6726 7.41005 7.41005C7.6726 7.1475 8.0287 7 8.4 7H14.7C15.0713 7 15.4274 7.1475 15.6899 7.41005C15.9525 7.6726 16.1 8.0287 16.1 8.4V9.1" stroke="white" stroke-width="2" stroke-linecap="round" stroke-linejoin="round"/>
</svg>
