<svg width="28" height="28" viewBox="0 0 28 28" fill="none" xmlns="http://www.w3.org/2000/svg">
<g clip-path="url(#clip0_628_72)">
<path d="M18.9499 18.9502C17.5254 20.036 15.7908 20.6376 13.9999 20.6668C8.16659 20.6668 4.83325 14.0002 4.83325 14.0002C5.86983 12.0684 7.30753 10.3807 9.04992 9.05018M12.2499 7.53352C12.8235 7.39925 13.4108 7.33213 13.9999 7.33352C19.8333 7.33352 23.1666 14.0002 23.1666 14.0002C22.6607 14.9465 22.0575 15.8375 21.3666 16.6585M15.7666 15.7668C15.5377 16.0125 15.2617 16.2095 14.955 16.3461C14.6484 16.4828 14.3173 16.5562 13.9817 16.5622C13.646 16.5681 13.3126 16.5063 13.0013 16.3806C12.69 16.2549 12.4072 16.0677 12.1698 15.8303C11.9324 15.5929 11.7452 15.3101 11.6195 14.9988C11.4938 14.6875 11.432 14.3541 11.4379 14.0184C11.4439 13.6828 11.5173 13.3517 11.654 13.0451C11.7906 12.7384 11.9876 12.4624 12.2333 12.2335" stroke="white" stroke-width="2" stroke-linecap="round" stroke-linejoin="round"/>
<path d="M4.83325 4.8335L23.1666 23.1668" stroke="white" stroke-width="2" stroke-linecap="round" stroke-linejoin="round"/>
</g>
<defs>
<clipPath id="clip0_628_72">
<rect width="20" height="20" fill="white" transform="translate(4 4)"/>
</clipPath>
</defs>
</svg>
